<svg width="180" height="107" viewBox="0 0 180 107" fill="none" xmlns="http://www.w3.org/2000/svg">
<g clip-path="url(#clip0_2170_7942)">
<path d="M160.86 15.8357C160.86 15.2328 160.364 14.7461 159.75 14.7461H21.7821C21.1678 14.7461 20.6719 15.2328 20.6719 15.8357C20.6719 25.7221 20.6719 99.4671 20.6719 99.4671H160.86V15.8357Z" fill="#14206C"/>
<path d="M158.877 17.9423C158.877 17.659 158.759 17.3757 158.552 17.1723C158.345 16.9689 158.063 16.8527 157.767 16.8527C145.526 16.8527 36.0082 16.8527 23.7664 16.8527C23.4704 16.8527 23.1891 16.9689 22.9819 17.1723C22.7747 17.3757 22.6562 17.659 22.6562 17.9423C22.6562 26.5284 22.6562 83.1229 22.6562 91.7091C22.6562 91.9996 22.7747 92.2757 22.9819 92.4791C23.1891 92.6825 23.4704 92.7987 23.7664 92.7987C36.0082 92.7987 145.526 92.7987 157.767 92.7987C158.063 92.7987 158.345 92.6825 158.552 92.4791C158.759 92.2757 158.877 91.9996 158.877 91.7091C158.877 83.1229 158.877 26.5284 158.877 17.9423Z" fill="url(#paint0_linear_2170_7942)"/>
<path d="M134.045 32.2671C134.045 30.4075 132.505 28.9038 130.611 28.9038H50.9205C49.0258 28.9038 47.4863 30.4075 47.4863 32.2671V81.6992C47.4863 83.5588 49.0258 85.0625 50.9205 85.0625H130.611C132.505 85.0625 134.045 83.5588 134.045 81.6992V32.2671Z" fill="#F6FAFE"/>
<path d="M77.0408 65.9217C77.0408 65.2388 76.4783 64.6868 75.79 64.6868H69.9281C69.2324 64.6868 68.6699 65.2388 68.6699 65.9217V71.6748C68.6699 72.3576 69.2324 72.9097 69.9281 72.9097H75.79C76.4783 72.9097 77.0408 72.3576 77.0408 71.6748V65.9217Z" fill="#B2BBE4"/>
<path d="M88.9783 65.9217C88.9783 65.2388 88.4158 64.6868 87.7275 64.6868H81.8656C81.1699 64.6868 80.6074 65.2388 80.6074 65.9217V71.6748C80.6074 72.3576 81.1699 72.9097 81.8656 72.9097H87.7275C88.4158 72.9097 88.9783 72.3576 88.9783 71.6748V65.9217Z" fill="#B2BBE4"/>
<path d="M100.925 65.9217C100.925 65.2388 100.363 64.6868 99.6669 64.6868H93.8051C93.1094 64.6868 92.5469 65.2388 92.5469 65.9217V71.6748C92.5469 72.3576 93.1094 72.9097 93.8051 72.9097H99.6669C100.363 72.9097 100.925 72.3576 100.925 71.6748V65.9217Z" fill="#B2BBE4"/>
<path d="M112.863 65.9217C112.863 65.2388 112.301 64.6868 111.605 64.6868H105.743C105.055 64.6868 104.492 65.2388 104.492 65.9217V71.6748C104.492 72.3576 105.055 72.9097 105.743 72.9097H111.605C112.301 72.9097 112.863 72.3576 112.863 71.6748V65.9217Z" fill="#B2BBE4"/>
<path fill-rule="evenodd" clip-rule="evenodd" d="M77.6035 51.4224C77.6035 48.909 79.6241 47.0785 82.3848 47.0785C85.1455 47.0785 87.1586 48.909 87.1586 51.4224C87.1586 53.9431 85.1455 55.7663 82.3848 55.7663C79.6241 55.7663 77.6035 53.9431 77.6035 51.4224ZM84.2869 51.4224C84.2869 50.1294 83.4358 49.3449 82.3848 49.3449C81.3338 49.3449 80.4826 50.1294 80.4826 51.4224C80.4826 52.7154 81.3338 53.4999 82.3848 53.4999C83.4358 53.4999 84.2869 52.7154 84.2869 51.4224Z" fill="#2F3278"/>
<path d="M89.9189 55.5776H92.7758V49.4394H95.2552V47.2675H87.4395V49.4394H89.9189V55.5776Z" fill="#2F3278"/>
<path fill-rule="evenodd" clip-rule="evenodd" d="M100.065 47.2675C102.426 47.2675 103.928 48.4806 103.928 50.4055C103.928 52.3233 102.426 53.5364 100.065 53.5364H98.8436V55.5776H95.9941V47.2675H100.065ZM101.042 50.4055C101.042 49.7954 100.664 49.4322 99.8798 49.4322H98.8362V51.3789H99.8798C100.664 51.3789 101.042 51.0085 101.042 50.4055Z" fill="#2F3278"/>
<path d="M47.4863 32.2671V37.3447C47.4863 37.6425 47.738 37.8895 48.0414 37.8895H133.497C133.793 37.8895 134.045 37.6425 134.045 37.3447V32.2671C134.045 30.4075 132.505 28.9038 130.611 28.9038H50.9205C49.0258 28.9038 47.4863 30.4075 47.4863 32.2671Z" fill="#EE5D57"/>
<path d="M54.0594 32.0273C54.8292 32.0273 55.4509 32.6375 55.4509 33.393C55.4509 34.1485 54.8292 34.7586 54.0594 34.7586C53.2897 34.7586 52.668 34.1485 52.668 33.393C52.668 32.6375 53.2897 32.0273 54.0594 32.0273Z" fill="white"/>
<path d="M62.452 32.0273C63.2143 32.0273 63.8434 32.6375 63.8434 33.393C63.8434 34.1485 63.2143 34.7586 62.452 34.7586C61.6823 34.7586 61.0605 34.1485 61.0605 33.393C61.0605 32.6375 61.6823 32.0273 62.452 32.0273Z" fill="white"/>
<path d="M70.8372 32.0273C71.6069 32.0273 72.2286 32.6375 72.2286 33.393C72.2286 34.1485 71.6069 34.7586 70.8372 34.7586C70.0748 34.7586 69.4531 34.1485 69.4531 33.393C69.4531 32.6375 70.0748 32.0273 70.8372 32.0273Z" fill="white"/>
<path d="M169.8 98.53H11.7305V99.4671C11.7305 101.45 12.5298 103.361 13.9657 104.763C15.3941 106.172 17.3407 106.956 19.3612 106.956H162.17C164.19 106.956 166.137 106.172 167.565 104.763C169.001 103.361 169.8 101.45 169.8 99.4671V98.53Z" fill="#000946"/>
<path d="M179.94 2.24466C179.94 1.66353 179.704 1.11146 179.289 0.704669C178.875 0.290616 178.305 0.0654297 177.72 0.0654297H144C143.415 0.0654297 142.845 0.290616 142.431 0.704669C142.016 1.11146 141.779 1.66353 141.779 2.24466V35.3326C141.779 35.9137 142.016 36.4658 142.431 36.8798C142.845 37.2866 143.415 37.5118 144 37.5118H177.72C178.305 37.5118 178.875 37.2866 179.289 36.8798C179.704 36.4658 179.94 35.9137 179.94 35.3326V2.24466Z" fill="url(#paint1_linear_2170_7942)"/>
<path d="M160.86 29.9425C164.56 29.9425 168.972 27.0514 171.288 22.7584C173.509 18.6396 172.154 9.18177 172.154 9.18177C166.751 11.7387 160.86 7.63452 160.86 7.63452C160.86 7.63452 154.968 11.7387 149.565 9.18177C149.565 9.18177 148.211 18.6396 150.431 22.7584C152.748 27.0514 156.974 29.8263 160.86 29.9425Z" fill="url(#paint2_linear_2170_7942)"/>
<path d="M160.86 27.9885C162.666 27.8432 166.966 26.5575 169.282 22.2644C171.503 18.1456 170.711 11.3101 170.711 11.3101C164.212 12.7412 160.852 9.71204 160.852 9.71204C160.852 9.71204 156.323 12.8792 151.179 11.3101C151.179 11.3101 150.254 18.1456 152.481 22.2644C154.798 26.5575 158.291 27.9086 160.86 27.9885Z" fill="url(#paint3_linear_2170_7942)"/>
<path d="M160.358 19.5477L165.753 14.2522L167.678 16.1481L160.365 23.325L160.358 23.3105L160.35 23.325L155.65 18.7123L157.575 16.8164L160.358 19.5477Z" fill="white"/>
<path d="M31.9968 20.2377C31.9968 19.8527 31.8414 19.4895 31.5601 19.2135C31.2863 18.9447 30.9088 18.7849 30.5165 18.7849H1.533C1.14073 18.7849 0.763261 18.9447 0.482011 19.2135C0.208162 19.4895 0.0527344 19.8527 0.0527344 20.2377V75.7789C0.0527344 76.1639 0.208162 76.5344 0.482011 76.8032C0.763261 77.0792 1.14073 77.2318 1.533 77.2318C6.87675 77.2318 25.1654 77.2318 30.5165 77.2318C30.9088 77.2318 31.2863 77.0792 31.5601 76.8032C31.8414 76.5344 31.9968 76.1639 31.9968 75.7789V20.2377Z" fill="#0F1851"/>
<path d="M31.0334 21.0513C31.0334 20.2523 30.3747 19.5985 29.5531 19.5985C24.4462 19.5985 7.60084 19.5985 2.49394 19.5985C1.67239 19.5985 1.01367 20.2523 1.01367 21.0513C1.01367 28.7948 1.01367 65.1007 1.01367 72.837C1.01367 73.6433 1.67239 74.2898 2.49394 74.2898C7.60084 74.2898 24.4462 74.2898 29.5531 74.2898C30.3747 74.2898 31.0334 73.6433 31.0334 72.837C31.0334 65.1007 31.0334 28.7948 31.0334 21.0513Z" fill="#7CD1FF"/>
<path d="M11.5538 41.5942V33.5601C11.5538 31.0467 13.6261 29.0128 16.187 29.0128C18.7478 29.0128 20.8202 31.0467 20.8202 33.5601C20.8202 37.2938 20.8202 41.5942 20.8202 41.5942C20.8202 42.0663 21.2125 42.4441 21.6862 42.4441C22.1672 42.4441 22.5521 42.0663 22.5521 41.5942C22.5521 41.5942 22.5521 37.2938 22.5521 33.5601C22.5521 30.1097 19.7026 27.313 16.187 27.313C12.6714 27.313 9.81445 30.1097 9.81445 33.5601V41.5942C9.81445 42.0663 10.2067 42.4441 10.6878 42.4441C11.1615 42.4441 11.5538 42.0663 11.5538 41.5942Z" fill="#0F1851"/>
<path d="M23.7663 40.6644C23.7663 40.2649 23.4333 39.938 23.0262 39.938C20.4135 39.938 11.6356 39.938 9.01552 39.938C8.60845 39.938 8.27539 40.2649 8.27539 40.6644C8.27539 42.662 8.27539 48.1973 8.27539 50.1876C8.27539 50.5944 8.60845 50.914 9.01552 50.914C11.6356 50.914 20.4135 50.914 23.0262 50.914C23.4333 50.914 23.7663 50.5944 23.7663 50.1876C23.7663 48.1973 23.7663 42.662 23.7663 40.6644Z" fill="#FFC832"/>
<path d="M15.3581 45.495C15.0177 45.2771 14.7882 44.9066 14.7882 44.4781C14.7882 43.8098 15.3433 43.2722 16.0243 43.2722C16.7052 43.2722 17.2529 43.8098 17.2529 44.4781C17.2529 44.9066 17.0308 45.2771 16.6904 45.495L17.5563 47.1876H14.4922L15.3581 45.495Z" fill="#0F1851"/>
<path d="M9.08902 57.2919C9.08902 57.0594 8.89659 56.8778 8.66715 56.8778H5.28475C5.0479 56.8778 4.85547 57.0594 4.85547 57.2919V60.6116C4.85547 60.844 5.0479 61.0256 5.28475 61.0256H8.66715C8.89659 61.0256 9.08902 60.844 9.08902 60.6116V57.2919ZM15.1211 57.2919C15.1211 57.0594 14.9287 56.8778 14.6992 56.8778H11.3168C11.08 56.8778 10.8949 57.0594 10.8949 57.2919V60.6116C10.8949 60.844 11.08 61.0256 11.3168 61.0256H14.6992C14.9287 61.0256 15.1211 60.844 15.1211 60.6116V57.2919ZM21.1532 57.2919C21.1532 57.0667 20.9681 56.8778 20.7313 56.8778H17.3489C17.112 56.8778 16.927 57.0667 16.927 57.2919V60.6116C16.927 60.844 17.112 61.0329 17.3489 61.0329H20.7313C20.9681 61.0329 21.1532 60.844 21.1532 60.6116V57.2919ZM27.1852 57.2919C27.1852 57.0667 27.0002 56.8778 26.7634 56.8778H23.381C23.1441 56.8778 22.9591 57.0667 22.9591 57.2919V60.6188C22.9591 60.844 23.1441 61.0329 23.381 61.0329H26.7634C27.0002 61.0329 27.1852 60.844 27.1852 60.6188V57.2919Z" fill="white"/>
<path d="M8.13456 58.5776L7.89772 58.1636L7.19459 58.5776L7.20199 57.8076H6.74311L6.75051 58.5703L6.05479 58.1636L5.81055 58.5776L6.50627 58.9481L5.81055 59.3258L6.05479 59.7326L6.75051 59.3331L6.74311 60.0958H7.20199L7.19459 59.3258L7.89772 59.7326L8.13456 59.3258L7.44624 58.9481L8.13456 58.5776ZM26.2382 58.5776L26.0013 58.1636L25.2982 58.5776L25.3056 57.8076H24.8393L24.8467 58.5703L24.151 58.1636L23.9068 58.5776L24.6025 58.9481L23.9068 59.3258L24.151 59.7326L24.8467 59.3331L24.8393 60.0958H25.3056L25.2982 59.3258L26.0013 59.7326L26.2382 59.3258L25.5425 58.9481L26.2382 58.5776ZM14.1666 58.5776L13.9372 58.1636L13.2341 58.5776V57.8076H12.7752L12.7826 58.5703L12.0869 58.1636L11.8426 58.5776L12.5383 58.9481L11.8426 59.3258L12.0869 59.7326L12.7826 59.3331L12.7752 60.0958H13.2341V59.3258L13.9372 59.7326L14.1666 59.3258L13.4783 58.9481L14.1666 58.5776ZM20.2061 58.5776L19.9693 58.1636L19.2661 58.5776V57.8076H18.8073L18.8147 58.5703L18.1189 58.1636L17.8747 58.5776L18.5704 58.9481L17.8747 59.3258L18.1189 59.7326L18.8147 59.3331L18.8073 60.0958H19.2661V59.3258L19.9693 59.7326L20.2061 59.3258L19.5104 58.9481L20.2061 58.5776Z" fill="#0F1851"/>
<path d="M16.0244 20.9205C16.387 20.9205 16.6757 21.2111 16.6757 21.5598C16.6757 21.9157 16.387 22.2063 16.0244 22.2063C15.6617 22.2063 15.373 21.9157 15.373 21.5598C15.373 21.2111 15.6617 20.9205 16.0244 20.9205Z" fill="black"/>
</g>
<defs>
<linearGradient id="paint0_linear_2170_7942" x1="292435" y1="87385.2" x2="292435" y2="31921.8" gradientUnits="userSpaceOnUse">
<stop stop-color="#39B3FF"/>
<stop offset="1" stop-color="#92E0FF"/>
</linearGradient>
<linearGradient id="paint1_linear_2170_7942" x1="73243.3" y1="1700.13" x2="73243.3" y2="17880.7" gradientUnits="userSpaceOnUse">
<stop stop-color="#004BA0"/>
<stop offset="1" stop-color="#000F72"/>
</linearGradient>
<linearGradient id="paint2_linear_2170_7942" x1="47321.1" y1="2749.29" x2="47321.1" y2="8397.68" gradientUnits="userSpaceOnUse">
<stop stop-color="#55EFC4"/>
<stop offset="1" stop-color="#51F3A2"/>
</linearGradient>
<linearGradient id="paint3_linear_2170_7942" x1="40665" y1="3275.71" x2="40665" y2="6536.23" gradientUnits="userSpaceOnUse">
<stop stop-color="#00918C"/>
<stop offset="1" stop-color="#007274"/>
</linearGradient>
<clipPath id="clip0_2170_7942">
<rect width="180" height="107" fill="white"/>
</clipPath>
</defs>
</svg>
